<?xml version="1.0" encoding="UTF-8" ?>
<!DOCTYPE svg PUBLIC "-//W3C//DTD SVG 1.1//EN" "http://www.w3.org/Graphics/SVG/1.1/DTD/svg11.dtd">
<svg width="512pt" height="512pt" viewBox="0 0 512 512" version="1.1" xmlns="http://www.w3.org/2000/svg">
<g id="#ffffffff">
</g>
<g id="#799eb2ff">
<path fill="#799eb2" opacity="1.00" d=" M 221.28 79.21 C 230.74 68.84 245.00 63.10 259.01 64.09 C 270.07 64.73 280.83 69.46 288.74 77.22 C 304.20 92.76 319.77 108.20 335.21 123.75 C 310.03 149.04 284.72 174.20 259.54 199.49 C 258.36 200.65 257.08 201.70 255.86 202.82 C 230.20 177.24 204.59 151.61 179.00 125.97 C 178.18 125.26 177.31 124.63 176.39 124.07 L 176.23 123.96 C 191.54 109.35 206.23 94.09 221.28 79.21 Z" />
</g>
<g id="#2754baff">
<path fill="#2754ba" opacity="1.00" d=" M 259.54 199.49 C 284.72 174.20 310.03 149.04 335.21 123.75 C 361.74 150.17 388.17 176.70 414.66 203.16 C 388.30 229.63 361.84 256.00 335.43 282.43 C 311.28 258.31 287.16 234.15 263.01 210.02 C 260.59 207.66 258.43 204.95 255.46 203.23 C 255.56 203.13 255.76 202.92 255.86 202.82 C 257.08 201.70 258.36 200.65 259.54 199.49 Z" />
</g>
<g id="#123962ff">
<path fill="#123962" opacity="1.00" d=" M 76.30 224.21 C 109.64 190.81 143.07 157.49 176.39 124.07 C 177.31 124.63 178.18 125.26 179.00 125.97 C 204.59 151.61 230.20 177.24 255.86 202.82 C 255.76 202.92 255.56 203.13 255.46 203.23 C 241.30 218.10 226.46 232.34 212.04 246.96 C 182.61 276.39 153.17 305.81 123.76 335.25 C 108.57 320.10 93.44 304.91 78.25 289.77 C 74.15 285.85 70.82 281.15 68.47 275.99 C 60.30 259.25 63.56 237.80 76.30 224.21 Z" />
</g>
<g id="#b1d4e5ff">
<path fill="#b1d4e5" opacity="1.00" d=" M 414.66 203.16 C 421.21 209.67 427.71 216.23 434.27 222.74 C 444.00 232.35 449.06 246.41 447.83 260.02 C 447.00 270.98 442.06 281.52 434.26 289.26 C 418.90 304.56 403.63 319.95 388.24 335.22 C 370.62 317.64 353.04 300.03 335.43 282.43 C 361.84 256.00 388.30 229.63 414.66 203.16 Z" />
</g>
<g id="#00aee6ff">
<path fill="#00aee6" opacity="1.00" d=" M 212.04 246.96 C 226.46 232.34 241.30 218.10 255.46 203.23 C 258.43 204.95 260.59 207.66 263.01 210.02 C 287.16 234.15 311.28 258.31 335.43 282.43 C 353.04 300.03 370.62 317.64 388.24 335.22 C 355.12 368.43 321.91 401.55 288.77 434.74 C 279.19 444.19 265.35 449.03 251.96 447.83 C 241.49 447.01 231.38 442.48 223.76 435.26 C 190.43 401.92 157.08 368.60 123.76 335.25 C 153.17 305.81 182.61 276.39 212.04 246.96 Z" />
</g>
</svg>
