<?xml version="1.0" encoding="UTF-8" ?>
<!DOCTYPE svg PUBLIC "-//W3C//DTD SVG 1.1//EN" "http://www.w3.org/Graphics/SVG/1.1/DTD/svg11.dtd">
<svg width="300pt" height="300pt" viewBox="0 0 300 300" version="1.1" xmlns="http://www.w3.org/2000/svg">
<g id="#f4f4ecff">
<path fill="#f4f4ec" opacity="1.00" d=" M 139.48 61.76 C 157.53 59.53 176.23 63.19 192.27 71.70 C 210.31 81.77 225.13 97.88 232.65 117.21 C 240.59 137.26 240.90 160.12 233.57 180.40 C 224.87 204.48 205.21 224.36 181.20 233.27 C 155.00 243.11 124.17 239.82 100.91 224.13 C 94.25 219.21 87.43 214.25 82.44 207.55 C 61.32 183.88 55.60 148.35 66.72 118.85 C 75.79 94.31 96.34 74.35 121.09 65.88 C 127.04 63.80 133.28 62.73 139.48 61.76 M 111.70 76.72 C 88.87 88.68 72.40 111.68 67.94 137.01 C 77.56 136.99 87.17 137.00 96.79 137.00 C 100.61 124.38 108.16 112.52 119.38 105.29 C 129.88 97.80 143.14 94.57 155.93 95.89 C 169.72 96.86 182.44 104.12 191.82 114.03 C 197.64 120.64 201.52 128.67 204.20 137.00 C 213.83 137.00 223.46 137.00 233.10 137.00 C 229.96 118.92 220.47 102.30 207.43 89.53 C 200.21 83.16 192.16 77.64 183.30 73.80 C 160.62 63.94 133.47 64.89 111.70 76.72 M 168.75 117.97 C 169.63 122.06 169.99 126.65 172.08 130.22 C 175.79 130.01 179.45 129.31 183.15 128.88 C 184.70 128.51 188.00 128.71 186.64 126.22 C 182.46 125.29 177.96 127.31 173.66 127.51 C 173.19 125.02 172.50 122.58 172.10 120.08 C 175.45 117.56 179.95 116.81 183.50 114.48 C 184.95 113.96 183.41 111.19 182.23 112.13 C 177.66 113.88 173.26 116.06 168.75 117.97 M 150.66 121.88 C 147.44 124.18 144.97 127.35 142.01 129.95 C 140.65 129.91 139.28 129.88 137.92 129.86 C 137.50 133.90 137.29 137.95 137.03 142.00 C 132.98 142.09 128.89 141.73 124.85 142.24 C 121.73 142.63 119.69 145.86 120.02 148.87 C 120.03 159.93 119.88 170.99 120.10 182.05 C 119.96 185.68 123.57 188.30 127.00 187.98 C 139.68 188.05 152.37 187.95 165.05 188.02 C 167.25 187.97 169.74 188.10 171.51 186.53 C 174.00 184.90 173.67 181.61 173.77 179.02 C 173.68 168.69 173.85 158.36 173.69 148.04 C 173.76 145.38 171.78 142.65 169.07 142.28 C 165.16 141.70 161.19 142.10 157.26 142.00 C 157.33 140.10 157.40 138.19 157.45 136.29 C 161.57 134.66 165.66 132.96 169.77 131.32 C 169.95 127.42 168.44 123.71 167.59 119.96 C 167.48 118.77 166.36 117.95 165.21 118.41 C 160.36 119.55 155.45 120.53 150.66 121.88 M 81.49 139.15 C 80.49 141.33 79.46 143.50 78.42 145.66 C 76.08 145.94 73.74 146.23 71.41 146.56 C 73.06 148.13 74.69 149.72 76.33 151.30 C 76.03 153.76 75.72 156.22 75.37 158.68 C 77.40 157.43 79.46 156.25 81.54 155.09 C 83.59 156.26 85.63 157.44 87.63 158.68 C 87.27 156.28 86.94 153.87 86.60 151.46 C 88.24 149.81 89.89 148.17 91.54 146.53 C 89.23 146.21 86.91 145.92 84.58 145.66 C 83.53 143.50 82.49 141.33 81.49 139.15 M 215.46 145.63 C 213.11 145.93 210.75 146.23 208.41 146.55 C 210.08 148.14 211.72 149.76 213.36 151.38 C 213.03 153.81 212.71 156.24 212.37 158.67 C 214.39 157.45 216.43 156.27 218.48 155.09 C 220.56 156.24 222.61 157.42 224.63 158.68 C 224.27 156.27 223.94 153.86 223.60 151.45 C 225.25 149.80 226.90 148.15 228.58 146.52 C 226.24 146.21 223.90 145.92 221.57 145.65 C 220.53 143.49 219.50 141.32 218.51 139.15 C 217.50 141.31 216.48 143.47 215.46 145.63 M 66.91 162.00 C 70.03 180.09 79.53 196.70 92.58 209.48 C 103.77 219.39 117.23 227.24 132.06 230.01 C 151.62 234.51 172.83 231.16 190.23 221.22 C 212.07 209.01 227.73 186.60 232.05 161.99 C 222.44 162.00 212.83 162.00 203.21 162.00 C 199.40 174.59 191.87 186.42 180.70 193.66 C 168.03 202.77 151.37 205.45 136.30 201.86 C 125.66 199.36 116.19 193.18 108.61 185.42 C 102.53 178.77 98.55 170.51 95.80 162.00 C 86.17 162.00 76.54 162.00 66.91 162.00 Z" />
<path fill="#f4f4ec" opacity="1.00" d=" M 147.22 75.26 C 148.62 75.15 150.02 75.04 151.43 74.95 C 151.84 79.76 153.12 84.51 153.21 89.34 C 153.12 94.40 144.69 95.96 142.97 91.18 C 141.32 86.37 141.39 81.18 140.42 76.21 C 141.84 76.11 143.26 76.02 144.69 75.94 C 145.66 80.85 145.70 85.93 147.11 90.75 C 148.45 90.99 149.08 90.46 149.00 89.14 C 148.56 84.49 147.58 79.91 147.22 75.26 Z" />
<path fill="#f4f4ec" opacity="1.00" d=" M 158.46 94.32 C 159.29 88.31 160.10 82.30 160.78 76.27 C 161.83 76.45 163.91 76.80 164.96 76.98 C 164.56 81.98 163.66 86.93 163.21 91.92 C 164.07 92.05 165.78 92.32 166.64 92.45 C 166.52 93.34 166.41 94.23 166.30 95.11 C 163.67 94.99 161.05 94.73 158.46 94.32 Z" />
<path fill="#f4f4ec" opacity="1.00" d=" M 123.98 80.55 C 126.87 79.69 130.45 77.23 133.21 79.66 C 134.51 81.34 135.67 83.49 135.25 85.69 C 134.86 87.36 133.24 88.14 132.01 89.10 C 132.79 91.42 133.67 93.70 134.61 95.96 C 133.30 96.48 131.98 96.99 130.67 97.49 C 128.25 91.92 126.24 86.18 123.98 80.55 M 129.15 81.49 C 129.63 83.19 130.28 84.83 131.03 86.43 C 131.87 84.54 130.64 82.62 129.15 81.49 Z" />
<path fill="#f4f4ec" opacity="1.00" d=" M 172.97 87.85 C 170.98 84.15 174.91 79.31 178.97 80.81 C 182.22 81.26 183.24 84.71 182.66 87.53 C 181.21 87.31 179.74 87.09 178.29 86.88 C 178.35 86.10 178.48 84.54 178.55 83.75 C 177.34 84.11 176.32 84.91 176.81 86.29 C 178.25 89.34 180.76 92.33 179.63 95.94 C 178.54 100.31 171.51 99.99 170.20 95.93 C 169.56 94.71 169.86 93.31 169.96 92.01 C 171.50 92.03 173.04 92.05 174.58 92.08 C 174.14 93.60 173.45 95.39 175.20 96.36 C 176.47 93.21 174.40 90.49 172.97 87.85 Z" />
<path fill="#f4f4ec" opacity="1.00" d=" M 110.10 86.54 C 111.36 85.58 112.63 84.62 113.93 83.70 C 117.81 88.37 121.52 93.17 125.43 97.81 C 124.79 98.29 123.50 99.26 122.85 99.74 C 120.77 97.30 118.75 94.80 116.64 92.38 C 118.36 95.17 120.06 97.96 121.63 100.83 C 120.98 101.31 119.67 102.27 119.01 102.75 C 116.48 100.50 113.96 98.23 111.39 96.03 C 113.58 98.66 115.75 101.30 117.86 103.99 C 117.17 104.44 115.80 105.35 115.11 105.80 C 111.39 101.00 107.28 96.50 103.81 91.52 C 105.16 90.79 106.24 89.15 107.87 89.12 C 110.68 91.30 113.17 93.88 115.81 96.26 C 113.77 93.11 111.95 89.81 110.10 86.54 Z" />
<path fill="#f4f4ec" opacity="1.00" d=" M 180.99 102.77 C 184.25 97.63 187.34 92.38 190.72 87.31 C 192.93 88.76 195.17 90.13 197.44 91.48 C 196.97 92.30 196.50 93.13 196.03 93.95 C 194.88 93.36 193.73 92.76 192.58 92.15 C 191.83 93.32 191.08 94.47 190.33 95.63 C 191.13 96.15 191.93 96.67 192.73 97.19 C 192.30 97.79 191.45 99.00 191.03 99.61 C 190.45 99.29 189.31 98.65 188.74 98.33 C 187.86 99.72 186.98 101.11 186.10 102.49 C 187.21 103.17 188.31 103.84 189.42 104.52 C 188.92 105.33 188.41 106.14 187.91 106.95 C 185.53 105.68 183.23 104.27 180.99 102.77 Z" />
<path fill="#f4f4ec" opacity="1.00" d=" M 95.78 99.12 C 96.77 98.16 97.76 97.20 98.75 96.25 C 103.24 100.37 107.69 104.54 112.11 108.73 C 111.12 109.64 110.13 110.55 109.13 111.46 C 104.56 107.48 100.21 103.25 95.78 99.12 Z" />
<path fill="#f4f4ec" opacity="1.00" d=" M 153.98 123.91 C 157.61 122.99 161.28 122.16 164.91 121.24 C 165.67 123.88 166.35 126.54 167.06 129.19 C 162.73 131.26 158.02 132.53 153.90 135.03 C 154.87 133.65 155.79 132.22 156.70 130.79 C 156.27 130.32 155.42 129.38 155.00 128.91 C 154.66 129.31 153.97 130.12 153.63 130.53 C 151.01 130.32 148.39 130.17 145.76 130.06 C 148.45 127.96 150.37 124.49 153.98 123.91 Z" />
<path fill="#f4f4ec" opacity="1.00" d=" M 140.37 132.35 C 144.25 132.80 148.15 133.02 152.05 133.20 C 151.56 134.93 148.86 137.60 151.58 138.61 C 152.34 138.23 153.86 137.47 154.62 137.09 C 154.20 141.65 153.96 146.24 153.82 150.83 C 148.92 150.71 144.03 150.69 139.13 150.84 C 139.75 144.70 140.21 138.53 140.37 132.35 Z" />
<path fill="#f4f4ec" opacity="1.00" d=" M 122.83 147.91 C 122.66 146.45 124.03 145.52 125.14 144.93 C 129.08 144.49 133.06 144.85 137.01 144.75 C 136.86 146.75 136.71 148.76 136.57 150.76 C 134.84 150.77 133.12 150.80 131.39 150.84 C 131.54 151.45 131.84 152.67 131.99 153.28 C 140.96 153.80 149.97 153.35 158.96 153.52 C 160.36 153.79 163.77 152.95 161.97 151.02 C 160.26 150.58 158.47 150.78 156.73 150.71 C 156.82 148.73 156.91 146.74 157.00 144.76 C 161.57 145.22 166.74 143.46 170.78 146.23 C 171.06 149.90 171.04 153.58 170.99 157.25 C 154.99 157.25 139.00 157.25 123.00 157.25 C 122.93 154.14 122.69 151.02 122.83 147.91 Z" />
<path fill="#f4f4ec" opacity="1.00" d=" M 122.99 160.25 C 138.99 160.25 155.00 160.25 171.00 160.25 C 170.93 167.49 171.13 174.75 170.93 181.99 C 170.93 184.01 169.06 185.55 167.07 185.23 C 153.70 185.27 140.32 185.26 126.94 185.24 C 124.50 185.70 122.42 183.37 122.77 181.01 C 122.79 174.09 122.95 167.17 122.99 160.25 M 145.18 165.18 C 143.94 166.23 143.79 168.05 143.12 169.47 C 141.59 169.50 140.07 169.54 138.54 169.58 C 138.36 170.17 138.01 171.35 137.83 171.94 C 139.07 172.73 140.30 173.52 141.54 174.30 C 141.19 176.10 139.80 178.08 141.04 179.84 C 143.00 180.35 144.50 178.83 146.00 177.86 C 147.51 178.82 149.00 180.37 150.97 179.81 C 152.20 178.06 150.80 176.11 150.47 174.32 C 151.70 173.53 152.93 172.73 154.17 171.94 C 153.99 171.34 153.62 170.15 153.44 169.56 C 151.92 169.53 150.40 169.50 148.88 169.47 C 148.02 167.82 147.89 164.25 145.18 165.18 Z" />
<path fill="#f4f4ec" opacity="1.00" d=" M 146.00 166.76 C 146.50 168.28 146.99 169.80 147.48 171.34 C 149.25 171.26 151.03 171.19 152.80 171.12 C 151.35 171.95 149.90 172.79 148.45 173.62 C 148.94 175.28 149.42 176.94 149.94 178.59 C 148.65 177.49 147.33 176.42 146.00 175.38 C 144.66 176.42 143.35 177.49 142.06 178.59 C 142.57 176.94 143.06 175.28 143.54 173.62 C 142.09 172.79 140.64 171.95 139.19 171.12 C 140.97 171.19 142.74 171.26 144.52 171.33 C 145.00 169.80 145.49 168.28 146.00 166.76 Z" />
<path fill="#f4f4ec" opacity="1.00" d=" M 123.03 221.99 C 123.37 215.76 123.47 209.49 124.34 203.30 C 125.08 203.57 126.57 204.10 127.31 204.37 C 127.07 208.46 126.55 212.53 126.27 216.62 C 127.82 212.88 129.46 209.14 131.68 205.74 C 132.47 205.85 134.05 206.06 134.84 206.17 C 131.93 211.74 128.93 217.27 126.03 222.85 C 125.28 222.64 123.78 222.21 123.03 221.99 Z" />
<path fill="#f4f4ec" opacity="1.00" d=" M 175.40 213.56 C 172.10 211.89 172.06 205.74 176.05 204.93 C 179.14 203.68 182.40 205.44 183.49 208.46 C 182.79 208.83 181.38 209.56 180.68 209.93 C 179.66 208.71 178.95 206.86 177.08 206.93 C 176.13 207.86 176.11 209.16 176.56 210.34 C 179.37 212.76 184.40 213.59 184.87 217.95 C 185.68 221.30 181.94 223.63 178.97 223.03 C 176.51 222.96 175.44 220.33 174.12 218.69 C 174.88 218.28 176.41 217.47 177.17 217.06 C 178.04 218.72 179.46 221.74 181.69 219.80 C 182.24 216.02 177.69 215.37 175.40 213.56 Z" />
<path fill="#f4f4ec" opacity="1.00" d=" M 147.20 206.94 C 148.56 207.09 149.93 207.25 151.31 207.42 C 151.62 211.74 152.33 216.02 152.59 220.35 C 153.27 216.16 154.47 212.09 155.50 207.99 C 156.91 207.99 158.33 207.99 159.75 207.99 C 159.62 214.00 158.79 219.96 158.57 225.97 C 157.76 225.98 156.13 226.01 155.32 226.02 C 155.51 222.54 155.67 219.06 155.72 215.58 C 155.05 219.10 154.29 222.59 153.35 226.05 C 152.46 225.85 151.57 225.65 150.69 225.45 C 150.46 221.52 150.07 217.59 149.52 213.69 C 149.60 217.61 149.50 221.54 148.91 225.42 C 148.10 225.39 146.48 225.34 145.68 225.32 C 146.41 219.21 146.24 213.02 147.20 206.94 Z" />
</g>
<g id="#353535ff">
<path fill="#353535" opacity="1.00" d=" M 138.50 56.76 C 165.13 53.34 192.94 62.17 212.84 80.16 C 220.91 87.55 227.84 96.28 233.02 105.93 C 238.66 117.53 243.06 129.99 243.64 142.99 C 245.90 169.88 235.51 197.33 216.51 216.41 C 209.15 223.28 201.18 229.68 192.03 234.01 C 184.49 237.50 176.65 240.44 168.52 242.22 C 155.84 244.51 142.71 244.50 130.08 241.90 C 121.48 239.82 113.16 236.64 105.26 232.67 C 85.63 221.83 69.61 204.06 62.11 182.81 C 55.52 166.39 54.69 148.07 57.93 130.80 C 60.69 119.64 64.78 108.65 71.08 98.99 C 81.66 82.96 96.95 69.79 115.00 62.95 C 122.55 59.98 130.38 57.51 138.50 56.76 M 139.48 61.76 C 133.28 62.73 127.04 63.80 121.09 65.88 C 96.34 74.35 75.79 94.31 66.72 118.85 C 55.60 148.35 61.32 183.88 82.44 207.55 C 87.43 214.25 94.25 219.21 100.91 224.13 C 124.17 239.82 155.00 243.11 181.20 233.27 C 205.21 224.36 224.87 204.48 233.57 180.40 C 240.90 160.12 240.59 137.26 232.65 117.21 C 225.13 97.88 210.31 81.77 192.27 71.70 C 176.23 63.19 157.53 59.53 139.48 61.76 Z" />
<path fill="#353535" opacity="1.00" d=" M 111.70 76.72 C 133.47 64.89 160.62 63.94 183.30 73.80 C 192.16 77.64 200.21 83.16 207.43 89.53 C 220.47 102.30 229.96 118.92 233.10 137.00 C 223.46 137.00 213.83 137.00 204.20 137.00 C 201.52 128.67 197.64 120.64 191.82 114.03 C 182.44 104.12 169.72 96.86 155.93 95.89 C 143.14 94.57 129.88 97.80 119.38 105.29 C 108.16 112.52 100.61 124.38 96.79 137.00 C 87.17 137.00 77.56 136.99 67.94 137.01 C 72.40 111.68 88.87 88.68 111.70 76.72 M 147.22 75.26 C 147.58 79.91 148.56 84.49 149.00 89.14 C 149.08 90.46 148.45 90.99 147.11 90.75 C 145.70 85.93 145.66 80.85 144.69 75.94 C 143.26 76.02 141.84 76.11 140.42 76.21 C 141.39 81.18 141.32 86.37 142.97 91.18 C 144.69 95.96 153.12 94.40 153.21 89.34 C 153.12 84.51 151.84 79.76 151.43 74.95 C 150.02 75.04 148.62 75.15 147.22 75.26 M 158.46 94.32 C 161.05 94.73 163.67 94.99 166.30 95.11 C 166.41 94.23 166.52 93.34 166.64 92.45 C 165.78 92.32 164.07 92.05 163.21 91.92 C 163.66 86.93 164.56 81.98 164.96 76.98 C 163.91 76.80 161.83 76.45 160.78 76.27 C 160.10 82.30 159.29 88.31 158.46 94.32 M 123.98 80.55 C 126.24 86.18 128.25 91.92 130.67 97.49 C 131.98 96.99 133.30 96.48 134.61 95.96 C 133.67 93.70 132.79 91.42 132.01 89.10 C 133.24 88.14 134.86 87.36 135.25 85.69 C 135.67 83.49 134.51 81.34 133.21 79.66 C 130.45 77.23 126.87 79.69 123.98 80.55 M 172.97 87.85 C 174.40 90.49 176.47 93.21 175.20 96.36 C 173.45 95.39 174.14 93.60 174.58 92.08 C 173.04 92.05 171.50 92.03 169.96 92.01 C 169.86 93.31 169.56 94.71 170.20 95.93 C 171.51 99.99 178.54 100.31 179.63 95.94 C 180.76 92.33 178.25 89.34 176.81 86.29 C 176.32 84.91 177.34 84.11 178.55 83.75 C 178.48 84.54 178.35 86.10 178.29 86.88 C 179.74 87.09 181.21 87.31 182.66 87.53 C 183.24 84.71 182.22 81.26 178.97 80.81 C 174.91 79.31 170.98 84.15 172.97 87.85 M 110.10 86.54 C 111.95 89.81 113.77 93.11 115.81 96.26 C 113.17 93.88 110.68 91.30 107.87 89.12 C 106.24 89.15 105.16 90.79 103.81 91.52 C 107.28 96.50 111.39 101.00 115.11 105.80 C 115.80 105.35 117.17 104.44 117.86 103.99 C 115.75 101.30 113.58 98.66 111.39 96.03 C 113.96 98.23 116.48 100.50 119.01 102.75 C 119.67 102.27 120.98 101.31 121.63 100.83 C 120.06 97.96 118.36 95.17 116.64 92.38 C 118.75 94.80 120.77 97.30 122.85 99.74 C 123.50 99.26 124.79 98.29 125.43 97.81 C 121.52 93.17 117.81 88.37 113.93 83.70 C 112.63 84.62 111.36 85.58 110.10 86.54 M 180.99 102.77 C 183.23 104.27 185.53 105.68 187.91 106.95 C 188.41 106.14 188.92 105.33 189.42 104.52 C 188.31 103.84 187.21 103.17 186.10 102.49 C 186.98 101.11 187.86 99.72 188.74 98.33 C 189.31 98.65 190.45 99.29 191.03 99.61 C 191.45 99.00 192.30 97.79 192.73 97.19 C 191.93 96.67 191.13 96.15 190.33 95.63 C 191.08 94.47 191.83 93.32 192.58 92.15 C 193.73 92.76 194.88 93.36 196.03 93.95 C 196.50 93.13 196.97 92.30 197.44 91.48 C 195.17 90.13 192.93 88.76 190.72 87.31 C 187.34 92.38 184.25 97.63 180.99 102.77 M 95.78 99.12 C 100.21 103.25 104.56 107.48 109.13 111.46 C 110.13 110.55 111.12 109.64 112.11 108.73 C 107.69 104.54 103.24 100.37 98.75 96.25 C 97.76 97.20 96.77 98.16 95.78 99.12 Z" />
<path fill="#353535" opacity="1.00" d=" M 129.15 81.49 C 130.64 82.62 131.87 84.54 131.03 86.43 C 130.28 84.83 129.63 83.19 129.15 81.49 Z" />
<path fill="#353535" opacity="1.00" d=" M 168.75 117.97 C 173.26 116.06 177.66 113.88 182.23 112.13 C 183.41 111.19 184.95 113.96 183.50 114.48 C 179.95 116.81 175.45 117.56 172.10 120.08 C 172.50 122.58 173.19 125.02 173.66 127.51 C 177.96 127.31 182.46 125.29 186.64 126.22 C 188.00 128.71 184.70 128.51 183.15 128.88 C 179.45 129.31 175.79 130.01 172.08 130.22 C 169.99 126.65 169.63 122.06 168.75 117.97 Z" />
<path fill="#353535" opacity="1.00" d=" M 150.66 121.88 C 155.45 120.53 160.36 119.55 165.21 118.41 C 166.36 117.95 167.48 118.77 167.59 119.96 C 168.44 123.71 169.95 127.42 169.77 131.32 C 165.66 132.96 161.57 134.66 157.45 136.29 C 157.40 138.19 157.33 140.10 157.26 142.00 C 161.19 142.10 165.16 141.70 169.07 142.28 C 171.78 142.65 173.76 145.38 173.69 148.04 C 173.85 158.36 173.68 168.69 173.77 179.02 C 173.67 181.61 174.00 184.90 171.51 186.53 C 169.74 188.10 167.25 187.97 165.05 188.02 C 152.37 187.95 139.68 188.05 127.00 187.98 C 123.57 188.30 119.96 185.68 120.10 182.05 C 119.88 170.99 120.03 159.93 120.02 148.87 C 119.69 145.86 121.73 142.63 124.85 142.24 C 128.89 141.73 132.98 142.09 137.03 142.00 C 137.29 137.95 137.50 133.90 137.92 129.86 C 139.28 129.88 140.65 129.91 142.01 129.95 C 144.97 127.35 147.44 124.18 150.66 121.88 M 153.98 123.91 C 150.37 124.49 148.45 127.96 145.76 130.06 C 148.39 130.17 151.01 130.32 153.63 130.53 C 153.97 130.12 154.66 129.31 155.00 128.91 C 155.42 129.38 156.27 130.32 156.70 130.79 C 155.79 132.22 154.87 133.65 153.90 135.03 C 158.02 132.53 162.73 131.26 167.06 129.19 C 166.35 126.54 165.67 123.88 164.91 121.24 C 161.28 122.16 157.61 122.99 153.98 123.91 M 140.37 132.35 C 140.21 138.53 139.75 144.70 139.13 150.84 C 144.03 150.69 148.92 150.71 153.82 150.83 C 153.96 146.24 154.20 141.65 154.62 137.09 C 153.86 137.47 152.34 138.23 151.58 138.61 C 148.86 137.60 151.56 134.93 152.05 133.20 C 148.15 133.02 144.25 132.80 140.37 132.35 M 122.83 147.91 C 122.69 151.02 122.93 154.14 123.00 157.25 C 139.00 157.25 154.99 157.25 170.99 157.25 C 171.04 153.58 171.06 149.90 170.78 146.23 C 166.74 143.46 161.57 145.22 157.00 144.76 C 156.91 146.74 156.82 148.73 156.73 150.71 C 158.47 150.78 160.26 150.58 161.97 151.02 C 163.77 152.95 160.36 153.79 158.96 153.52 C 149.97 153.35 140.96 153.80 131.99 153.28 C 131.84 152.67 131.54 151.45 131.39 150.84 C 133.12 150.80 134.84 150.77 136.57 150.76 C 136.71 148.76 136.86 146.75 137.01 144.75 C 133.06 144.85 129.08 144.49 125.14 144.93 C 124.03 145.52 122.66 146.45 122.83 147.91 M 122.99 160.25 C 122.95 167.17 122.79 174.09 122.77 181.01 C 122.42 183.37 124.50 185.70 126.94 185.24 C 140.32 185.26 153.70 185.27 167.07 185.23 C 169.06 185.55 170.93 184.01 170.93 181.99 C 171.13 174.75 170.93 167.49 171.00 160.25 C 155.00 160.25 138.99 160.25 122.99 160.25 Z" />
<path fill="#353535" opacity="1.00" d=" M 145.18 165.18 C 147.89 164.25 148.02 167.82 148.88 169.47 C 150.40 169.50 151.92 169.53 153.44 169.56 C 153.62 170.15 153.99 171.34 154.17 171.94 C 152.93 172.73 151.70 173.53 150.47 174.32 C 150.80 176.11 152.20 178.06 150.97 179.81 C 149.00 180.37 147.51 178.82 146.00 177.86 C 144.50 178.83 143.00 180.35 141.04 179.84 C 139.80 178.08 141.19 176.10 141.54 174.30 C 140.30 173.52 139.07 172.73 137.83 171.94 C 138.01 171.35 138.36 170.17 138.54 169.58 C 140.07 169.54 141.59 169.50 143.12 169.47 C 143.79 168.05 143.94 166.23 145.18 165.18 M 146.00 166.76 C 145.49 168.28 145.00 169.80 144.52 171.33 C 142.74 171.26 140.97 171.19 139.19 171.12 C 140.64 171.95 142.09 172.79 143.54 173.62 C 143.06 175.28 142.57 176.94 142.06 178.59 C 143.35 177.49 144.66 176.42 146.00 175.38 C 147.33 176.42 148.65 177.49 149.94 178.59 C 149.42 176.94 148.94 175.28 148.45 173.62 C 149.90 172.79 151.35 171.95 152.80 171.12 C 151.03 171.19 149.25 171.26 147.48 171.34 C 146.99 169.80 146.50 168.28 146.00 166.76 Z" />
</g>
<g id="#e0c422ff">
<path fill="#e0c422" opacity="1.00" d=" M 81.49 139.15 C 82.49 141.33 83.53 143.50 84.58 145.66 C 86.91 145.92 89.23 146.21 91.54 146.53 C 89.89 148.17 88.24 149.81 86.60 151.46 C 86.94 153.87 87.27 156.28 87.63 158.68 C 85.63 157.44 83.59 156.26 81.54 155.09 C 79.46 156.25 77.40 157.43 75.37 158.68 C 75.72 156.22 76.03 153.76 76.33 151.30 C 74.69 149.72 73.06 148.13 71.41 146.56 C 73.74 146.23 76.08 145.94 78.42 145.66 C 79.46 143.50 80.49 141.33 81.49 139.15 Z" />
<path fill="#e0c422" opacity="1.00" d=" M 215.46 145.63 C 216.48 143.47 217.50 141.31 218.51 139.15 C 219.50 141.32 220.53 143.49 221.57 145.65 C 223.90 145.92 226.24 146.21 228.58 146.52 C 226.90 148.15 225.25 149.80 223.60 151.45 C 223.94 153.86 224.27 156.27 224.63 158.68 C 222.61 157.42 220.56 156.24 218.48 155.09 C 216.43 156.27 214.39 157.45 212.37 158.67 C 212.71 156.24 213.03 153.81 213.36 151.38 C 211.72 149.76 210.08 148.14 208.41 146.55 C 210.75 146.23 213.11 145.93 215.46 145.63 Z" />
<path fill="#e0c422" opacity="1.00" d=" M 66.91 162.00 C 76.54 162.00 86.17 162.00 95.80 162.00 C 98.55 170.51 102.53 178.77 108.61 185.42 C 116.19 193.18 125.66 199.36 136.30 201.86 C 151.37 205.45 168.03 202.77 180.70 193.66 C 191.87 186.42 199.40 174.59 203.21 162.00 C 212.83 162.00 222.44 162.00 232.05 161.99 C 227.73 186.60 212.07 209.01 190.23 221.22 C 172.83 231.16 151.62 234.51 132.06 230.01 C 117.23 227.24 103.77 219.39 92.58 209.48 C 79.53 196.70 70.03 180.09 66.91 162.00 M 123.03 221.99 C 123.78 222.21 125.28 222.64 126.03 222.85 C 128.93 217.27 131.93 211.74 134.84 206.17 C 134.05 206.06 132.47 205.85 131.68 205.74 C 129.46 209.14 127.82 212.88 126.27 216.62 C 126.55 212.53 127.07 208.46 127.31 204.37 C 126.57 204.10 125.08 203.57 124.34 203.30 C 123.47 209.49 123.37 215.76 123.03 221.99 M 175.40 213.56 C 177.69 215.37 182.24 216.02 181.69 219.80 C 179.46 221.74 178.04 218.72 177.17 217.06 C 176.41 217.47 174.88 218.28 174.12 218.69 C 175.44 220.33 176.51 222.96 178.97 223.03 C 181.94 223.63 185.68 221.30 184.87 217.95 C 184.40 213.59 179.37 212.76 176.56 210.34 C 176.11 209.16 176.13 207.86 177.08 206.93 C 178.95 206.86 179.66 208.71 180.68 209.93 C 181.38 209.56 182.79 208.83 183.49 208.46 C 182.40 205.44 179.14 203.68 176.05 204.93 C 172.06 205.74 172.10 211.89 175.40 213.56 M 147.20 206.94 C 146.24 213.02 146.41 219.21 145.68 225.32 C 146.48 225.34 148.10 225.39 148.91 225.42 C 149.50 221.54 149.60 217.61 149.52 213.69 C 150.07 217.59 150.46 221.52 150.69 225.45 C 151.57 225.65 152.46 225.85 153.35 226.05 C 154.29 222.59 155.05 219.10 155.72 215.58 C 155.67 219.06 155.51 222.54 155.32 226.02 C 156.13 226.01 157.76 225.98 158.57 225.97 C 158.79 219.96 159.62 214.00 159.75 207.99 C 158.33 207.99 156.91 207.99 155.50 207.99 C 154.47 212.09 153.27 216.16 152.59 220.35 C 152.33 216.02 151.62 211.74 151.31 207.42 C 149.93 207.25 148.56 207.09 147.20 206.94 Z" />
</g>
</svg>
